<?xml version="1.0" standalone="no"?>
<!DOCTYPE svg PUBLIC "-//W3C//DTD SVG 20010904//EN"
 "http://www.w3.org/TR/2001/REC-SVG-20010904/DTD/svg10.dtd">
<svg version="1.0" xmlns="http://www.w3.org/2000/svg"
 width="640.000000pt" height="640.000000pt" viewBox="0 0 640.000000 640.000000"
 preserveAspectRatio="xMidYMid meet">
<metadata>
Created by potrace 1.11, written by Peter Selinger 2001-2013
</metadata>
<g transform="translate(0.000000,640.000000) scale(0.100000,-0.100000)"
fill="#000000" stroke="none">
<path d="M1644 5482 l-26 -27 13 25 c11 22 10 23 -3 13 -8 -7 -19 -9 -23 -5
-5 4 -5 2 -2 -4 8 -14 -20 -27 -28 -15 -3 5 -15 7 -27 3 -15 -4 -19 -2 -13 7
6 10 3 11 -14 2 -12 -7 -26 -9 -31 -6 -6 4 -7 -1 -3 -11 5 -13 3 -15 -8 -8
-21 13 -49 15 -49 4 0 -6 3 -9 8 -9 19 3 32 -2 32 -12 0 -8 -5 -8 -15 1 -12
10 -15 10 -15 -1 0 -8 -6 -5 -15 7 -9 10 -14 13 -13 5 2 -7 -3 -16 -11 -19 -9
-3 -11 0 -6 8 4 7 -5 4 -21 -6 -29 -18 -29 -18 -14 1 14 18 14 19 -2 7 -10 -8
-23 -10 -30 -6 -8 5 -8 1 2 -11 14 -17 14 -18 -10 -5 -23 12 -24 12 -11 -4 12
-14 12 -16 -3 -10 -9 3 -16 1 -16 -6 0 -6 -5 -8 -11 -4 -8 4 -7 9 2 15 11 7
11 9 1 9 -7 0 -15 -6 -18 -14 -3 -8 -16 -13 -29 -11 -14 1 -22 -1 -20 -5 3 -5
-2 -11 -11 -14 -24 -9 -27 -8 -20 12 5 14 3 13 -10 -3 -8 -11 -20 -19 -26 -17
-8 2 -7 -2 0 -11 10 -12 8 -13 -14 -9 -18 3 -25 1 -20 -6 13 -21 -41 -37 -56
-17 -5 6 -8 5 -8 -2 0 -7 -9 -22 -21 -34 l-21 -21 7 22 c6 20 5 21 -8 9 -8 -8
-12 -18 -10 -23 3 -5 -8 -7 -25 -4 -17 2 -29 1 -26 -3 2 -4 -5 -14 -17 -23
-12 -8 -19 -19 -15 -24 3 -5 -6 -7 -21 -4 -18 3 -24 1 -19 -7 4 -6 13 -8 19
-4 7 4 6 0 -2 -10 -10 -13 -17 -14 -33 -6 -16 9 -19 8 -13 -2 6 -9 3 -10 -11
-5 -10 4 -15 4 -11 0 4 -4 1 -14 -6 -23 -11 -14 -10 -15 8 -1 19 14 19 14 6
-3 -10 -12 -17 -14 -26 -7 -9 7 -16 5 -26 -7 -9 -11 -10 -14 -1 -9 7 4 12 2
12 -7 0 -9 -9 -14 -22 -13 -17 1 -22 -4 -20 -17 2 -10 -2 -16 -10 -15 -6 2
-13 -1 -13 -7 -4 -27 -18 -43 -32 -38 -11 4 -14 3 -9 -6 6 -8 2 -11 -9 -9 -13
2 -19 -4 -20 -20 -1 -12 -8 -28 -15 -35 -10 -10 -10 -7 -1 13 12 24 11 24 -4
5 -8 -11 -13 -26 -10 -34 4 -11 2 -11 -8 -2 -12 9 -14 6 -12 -14 3 -23 -7 -30
-36 -27 -3 1 -6 -6 -6 -13 0 -9 5 -12 12 -7 6 4 2 -1 -8 -10 -11 -10 -22 -16
-26 -14 -4 3 -8 -9 -9 -27 -3 -34 -8 -42 -25 -42 -7 0 -11 -8 -9 -18 2 -9 -4
-20 -13 -24 -13 -5 -14 -7 -3 -14 10 -7 11 -9 0 -9 -8 0 -10 -5 -6 -12 5 -8 1
-8 -12 2 -10 8 -16 10 -12 6 4 -5 2 -16 -5 -24 -9 -13 -9 -14 0 -8 7 4 13 2
13 -3 0 -6 -5 -11 -12 -11 -6 0 -8 -3 -4 -7 3 -4 -4 -13 -16 -21 -13 -7 -16
-11 -7 -9 9 3 16 -1 16 -8 0 -7 -8 -12 -17 -10 -9 2 -17 -3 -17 -10 0 -8 4
-12 9 -9 4 3 8 0 8 -5 0 -6 -8 -11 -17 -11 -15 0 -16 -2 -3 -10 13 -9 7 -14
-12 -11 -4 0 -5 -6 -2 -14 4 -8 11 -12 18 -8 6 4 5 -1 -3 -10 -14 -18 -26 -23
-16 -8 3 5 0 13 -7 17 -7 4 -10 4 -6 -1 4 -4 3 -14 -3 -21 -15 -18 8 -29 29
-12 15 11 15 11 6 -2 -6 -8 -14 -25 -17 -37 -4 -18 -1 -23 16 -24 21 0 21 -1
2 -9 -17 -7 -17 -9 -2 -9 9 -1 17 -6 17 -12 0 -5 -6 -7 -12 -4 -7 4 -4 -1 6
-9 18 -14 18 -16 3 -16 -15 0 -16 -3 -6 -22 11 -21 11 -22 -5 -9 -14 12 -16
12 -10 -3 4 -9 3 -16 -2 -14 -5 2 -10 -1 -12 -7 -2 -5 -11 -19 -20 -29 -9 -11
-12 -16 -6 -13 7 4 14 -2 17 -12 4 -15 0 -19 -14 -16 -13 3 -17 0 -12 -8 14
-22 10 -55 -7 -52 -12 2 -15 -6 -14 -36 1 -22 -2 -41 -6 -44 -5 -3 -7 4 -5 16
2 12 1 18 -3 15 -4 -4 -7 -11 -7 -14 0 -4 -4 -13 -9 -21 -6 -9 -5 -12 2 -7 6
4 10 -1 9 -13 -1 -12 -6 -17 -17 -13 -12 4 -11 1 3 -15 14 -16 15 -23 6 -29
-8 -4 -10 -3 -5 4 4 7 2 12 -5 12 -7 0 -9 -8 -6 -21 4 -16 3 -18 -9 -8 -19 16
-18 4 2 -15 13 -14 14 -16 0 -16 -8 0 -18 -5 -22 -12 -4 -6 -3 -8 3 -5 6 4 14
0 17 -9 3 -8 2 -13 -2 -10 -5 3 -13 -8 -19 -25 -7 -19 -8 -31 -1 -35 5 -3 1
-14 -11 -26 -17 -15 -19 -23 -10 -40 9 -16 8 -19 -2 -13 -9 6 -11 3 -6 -9 4
-10 3 -15 -3 -11 -6 4 -10 -5 -10 -20 0 -17 -4 -24 -11 -19 -6 3 -4 -5 5 -18
9 -14 13 -28 9 -32 -8 -7 -9 -11 -12 -37 0 -5 -6 -7 -13 -3 -6 4 -8 3 -4 -4 3
-5 0 -13 -6 -16 -7 -3 -2 -4 12 -1 14 3 19 2 12 -1 -6 -3 -9 -11 -5 -17 4 -6
0 -8 -10 -4 -8 3 -18 0 -21 -8 -3 -10 0 -12 12 -8 15 6 15 5 3 -10 -7 -9 -10
-17 -5 -17 5 0 2 -5 -6 -10 -13 -8 -13 -10 -1 -10 11 0 10 -4 -4 -13 -14 -11
-15 -16 -5 -22 9 -6 11 -4 5 5 -5 8 -4 11 3 6 6 -4 9 -13 6 -21 -4 -8 -11 -12
-17 -8 -6 3 -7 1 -3 -5 4 -7 1 -12 -6 -12 -10 0 -10 -2 1 -9 8 -5 16 -17 17
-25 1 -9 -1 -14 -5 -12 -4 3 -13 -4 -20 -16 -7 -11 -8 -17 -3 -14 6 3 13 -1
16 -10 3 -8 2 -12 -3 -9 -5 3 -12 1 -16 -5 -3 -5 -1 -10 5 -10 6 0 8 -5 5 -10
-4 -6 -11 -8 -16 -5 -5 3 -6 -1 -3 -10 5 -13 9 -13 23 -3 14 12 14 11 3 -4 -8
-10 -10 -23 -6 -30 6 -10 4 -10 -9 0 -15 12 -15 11 -7 -17 5 -17 5 -29 0 -26
-4 3 -11 -2 -14 -11 -5 -12 -1 -14 17 -9 20 5 20 5 -3 -9 -14 -9 -20 -15 -13
-16 6 0 10 -8 8 -17 -1 -10 -8 -17 -16 -15 -10 3 -10 0 0 -12 11 -13 10 -17
-3 -22 -9 -3 -13 -11 -10 -16 4 -6 10 -5 15 3 4 7 11 11 14 7 3 -3 -1 -13 -10
-22 -12 -12 -13 -16 -3 -16 10 0 9 -3 -2 -10 -12 -8 -12 -10 5 -10 19 -1 19
-2 -1 -10 -23 -9 -30 -62 -14 -105 6 -16 6 -27 -2 -31 -7 -4 -8 -3 -4 4 5 8 2
10 -8 6 -14 -5 -14 -9 -1 -27 13 -18 12 -22 -3 -34 -14 -12 -14 -14 -1 -10 21
7 21 -22 0 -47 -15 -18 -15 -19 3 -12 16 5 17 4 6 -9 -7 -8 -17 -12 -23 -8 -6
3 -7 1 -3 -5 4 -7 15 -12 24 -13 14 0 13 -2 -3 -9 -11 -5 -14 -9 -7 -9 6 -1
12 -6 12 -12 0 -5 -5 -7 -12 -3 -7 5 -8 3 -2 -7 11 -18 14 -39 6 -39 -4 0 -12
-8 -19 -18 -9 -15 -8 -19 3 -19 7 0 11 4 8 8 -2 4 0 10 5 13 10 7 9 -9 -4 -36
-4 -10 -12 -15 -19 -11 -6 4 -5 -1 3 -10 14 -18 26 -23 16 -8 -3 5 -1 12 4 15
18 11 5 -24 -15 -40 -18 -14 -18 -15 6 -9 23 5 23 5 8 -8 -10 -8 -15 -17 -11
-20 3 -4 0 -7 -7 -7 -7 0 -10 -3 -7 -6 4 -4 12 -2 19 4 10 8 13 2 13 -26 -1
-26 -5 -37 -15 -37 -9 0 -15 -10 -15 -25 -1 -31 16 -61 29 -53 5 3 6 1 2 -5
-4 -6 -13 -9 -21 -6 -9 4 -12 -1 -11 -13 2 -10 0 -23 -5 -28 -9 -13 -1 -28 23
-41 16 -9 16 -11 -5 -23 -20 -13 -21 -13 -8 2 7 10 9 17 3 17 -12 0 -21 -21
-14 -38 3 -10 9 -9 25 5 21 17 21 17 7 0 -12 -16 -12 -20 1 -28 10 -7 6 -8
-12 -3 -15 3 -30 1 -33 -5 -5 -7 -1 -8 10 -4 13 5 15 3 9 -7 -5 -8 -4 -11 2
-7 6 4 14 0 17 -9 4 -12 2 -15 -9 -10 -9 3 -15 0 -15 -10 0 -8 4 -13 9 -9 10
6 8 -17 -5 -49 -5 -13 -4 -17 4 -12 8 5 10 2 6 -9 -5 -13 -9 -13 -23 -3 -14
11 -14 11 -5 -2 6 -8 11 -28 12 -45 1 -23 -1 -26 -8 -15 -5 8 -10 10 -10 4 0
-6 8 -18 17 -25 14 -12 16 -12 8 0 -6 10 -4 12 4 7 9 -6 9 -12 -2 -24 -8 -10
-12 -30 -10 -51 3 -25 1 -31 -9 -25 -10 6 -10 4 1 -9 9 -12 10 -17 2 -17 -8 0
-8 -4 1 -14 7 -8 16 -12 21 -9 4 2 7 2 7 -2 0 -3 -10 -10 -22 -15 l-23 -9 24
0 c24 -1 24 -2 6 -15 -17 -12 -31 -61 -14 -50 4 2 10 0 14 -6 3 -5 0 -10 -7
-10 -11 0 -10 -2 0 -9 11 -6 10 -10 -4 -15 -16 -6 -15 -8 2 -28 11 -12 13 -18
5 -13 -11 6 -13 4 -8 -8 3 -9 2 -19 -4 -23 -6 -4 -6 -11 2 -20 6 -8 8 -14 3
-14 -5 0 -1 -5 9 -11 14 -8 16 -14 6 -25 -6 -7 -15 -12 -18 -9 -4 2 -8 -2 -8
-10 0 -8 4 -12 9 -9 4 3 8 0 8 -5 0 -6 -6 -11 -12 -11 -10 0 -10 -2 -1 -8 14
-9 12 -43 -4 -60 -13 -13 -7 -45 7 -37 5 3 12 0 16 -6 4 -8 3 -9 -5 -5 -8 6
-11 0 -8 -21 2 -17 -2 -33 -12 -41 -9 -8 -10 -11 -4 -7 7 3 13 1 13 -5 0 -6 5
-8 12 -4 7 4 8 3 4 -5 -4 -6 -13 -8 -19 -4 -7 4 -5 -1 3 -12 14 -17 13 -17
-10 -12 -14 4 -19 4 -12 1 6 -3 9 -11 6 -16 -4 -7 -2 -8 4 -4 7 4 12 3 12 -3
0 -19 -19 -21 -29 -4 -6 10 -11 13 -11 6 0 -6 5 -15 10 -18 6 -4 7 -11 4 -17
-4 -6 -2 -8 3 -5 6 4 16 0 22 -7 9 -11 9 -16 0 -22 -8 -5 -9 -3 -4 6 5 9 4 11
-4 6 -6 -4 -8 -13 -4 -19 4 -7 9 -21 11 -32 2 -11 5 -27 6 -35 2 -8 -4 -21
-13 -28 -9 -8 -10 -11 -3 -7 6 3 12 1 12 -5 0 -6 5 -8 12 -4 7 4 8 3 4 -5 -4
-6 -13 -8 -19 -4 -7 4 -5 -1 3 -12 14 -17 13 -17 -10 -12 -14 4 -19 4 -12 1 6
-3 9 -11 6 -16 -5 -7 -2 -8 6 -3 9 5 10 2 5 -14 -5 -16 -3 -20 9 -15 9 3 16 1
16 -5 0 -6 -3 -10 -8 -10 -19 3 -30 -2 -37 -18 -5 -15 -4 -16 6 -6 7 7 18 13
23 13 6 -1 -2 -12 -19 -26 -23 -20 -25 -23 -7 -14 25 12 45 4 23 -9 -8 -5 -9
-11 -3 -15 5 -3 9 -16 8 -28 -1 -13 1 -33 6 -46 5 -15 4 -21 -2 -17 -17 11
-11 -7 7 -21 15 -12 15 -13 2 -8 -14 4 -16 -1 -11 -28 6 -42 7 -69 1 -88 -2
-9 2 -14 10 -12 12 3 12 0 1 -13 -7 -8 -10 -18 -6 -22 3 -4 12 1 19 11 12 16
13 16 13 -3 0 -11 -4 -17 -8 -15 -4 3 -8 -2 -8 -11 0 -9 -4 -14 -8 -11 -5 3
-9 -1 -9 -9 0 -11 5 -12 20 -3 15 8 18 7 11 -4 -13 -20 -13 -38 -1 -38 7 0 5
-5 -3 -10 -13 -9 -13 -10 0 -10 13 0 13 -1 0 -10 -10 -6 -11 -10 -3 -10 7 0
13 -10 13 -22 0 -56 11 -76 24 -45 3 6 2 -1 -1 -17 -5 -22 -3 -27 7 -21 8 5
11 4 6 -3 -3 -5 0 -13 6 -16 7 -3 1 -3 -15 -1 -16 2 -25 0 -22 -6 4 -5 10 -7
15 -4 5 3 11 1 15 -5 3 -5 1 -10 -6 -10 -7 0 -5 -6 6 -13 10 -8 15 -19 11 -25
-4 -7 -2 -12 3 -12 6 0 10 -6 8 -12 -1 -7 4 -12 12 -10 12 3 12 1 0 -14 -8
-10 -9 -15 -3 -11 7 4 15 0 18 -9 3 -8 2 -12 -4 -9 -21 13 -9 -8 21 -36 22
-20 26 -28 13 -24 -11 3 -10 1 4 -7 15 -7 22 -18 19 -29 -3 -10 -2 -18 2 -17
16 2 31 -3 30 -9 -4 -22 3 -25 17 -7 8 10 13 15 11 9 -9 -19 12 -55 28 -49 8
3 15 1 15 -6 0 -6 5 -8 13 -4 9 6 9 5 0 -8 -17 -20 -5 -30 20 -17 15 8 18 8
12 -1 -5 -9 -1 -10 16 -6 13 3 18 3 11 0 -17 -8 -5 -24 13 -17 11 4 13 1 8
-13 -6 -17 -5 -18 12 -4 11 9 16 10 11 3 -4 -7 -3 -13 3 -13 5 0 12 6 14 13 3
7 6 4 6 -6 1 -10 5 -16 10 -13 5 4 12 0 14 -6 3 -7 6 -4 6 7 1 18 3 17 14 -5
8 -17 21 -25 39 -25 14 -1 34 -7 44 -15 16 -14 16 -13 4 10 -12 23 -12 24 3
12 9 -8 21 -11 26 -7 6 3 19 1 29 -4 13 -7 23 -6 32 2 12 10 12 9 1 -5 -7 -10
-18 -15 -25 -11 -6 3 -8 2 -3 -2 10 -11 48 -14 41 -3 -3 4 3 8 13 8 15 0 16 2
3 11 -12 9 -12 10 3 5 10 -3 21 -6 24 -6 3 0 0 -6 -6 -13 -8 -11 -7 -14 7 -14
9 0 22 3 27 7 6 4 18 6 28 5 9 -2 15 1 11 6 -3 5 -10 7 -15 4 -5 -4 -9 -2 -9
3 0 6 16 9 36 7 27 -3 34 0 30 10 -3 9 0 12 10 8 24 -9 64 6 64 25 0 9 3 13 8
7 11 -15 41 -15 36 0 -3 7 0 16 7 21 7 4 10 3 5 -4 -3 -5 0 -9 6 -8 25 3 39
18 33 33 -4 13 -3 14 9 4 10 -8 16 -9 21 -1 3 6 11 7 17 4 7 -4 8 -2 4 5 -6 9
-11 9 -24 -1 -12 -10 -14 -10 -8 -1 4 7 16 18 28 24 11 6 18 7 15 2 -4 -5 0
-10 7 -10 9 0 13 9 11 23 -2 20 1 22 16 14 15 -8 17 -7 14 9 -2 14 1 18 11 14
7 -3 17 2 20 11 3 9 10 14 14 11 4 -3 11 7 14 20 4 14 11 23 17 20 14 -9 39
14 39 36 0 11 5 19 11 19 5 0 7 -5 3 -12 -5 -7 -3 -8 5 -4 7 5 10 14 7 22 -3
8 1 14 9 14 8 0 15 5 15 11 0 5 5 7 12 3 8 -5 9 -2 5 9 -4 11 -1 17 8 17 7 0
17 5 21 12 4 6 3 8 -4 4 -6 -3 -14 -1 -18 5 -4 7 -3 10 2 7 14 -9 49 8 49 23
0 8 9 13 20 12 11 -1 14 0 8 3 -7 3 -13 10 -13 15 0 6 5 7 12 3 8 -5 9 0 5 15
-5 19 -3 20 11 9 12 -10 14 -10 8 -1 -4 8 -2 13 8 13 8 0 18 5 22 12 4 7 3 8
-4 4 -7 -4 -12 -2 -12 3 0 6 6 11 14 11 7 0 21 16 30 35 9 19 25 40 35 47 10
7 17 21 15 31 -2 14 2 16 18 11 14 -4 18 -2 14 5 -4 6 -2 11 3 11 6 0 11 7 11
15 0 14 11 19 35 16 6 -1 2 5 -7 12 -15 12 -15 14 4 26 11 7 17 8 14 2 -5 -7
-1 -8 9 -5 14 6 14 8 -2 20 -17 12 -16 13 5 9 19 -3 22 -2 12 10 -8 10 -8 15
1 21 8 4 9 3 5 -4 -5 -8 -2 -10 9 -6 10 4 12 10 6 18 -6 7 -3 19 10 35 10 13
19 19 19 14 0 -5 -5 -14 -12 -21 -9 -9 -9 -12 0 -12 7 0 12 5 12 10 0 6 8 10
18 11 10 0 12 3 5 6 -16 6 -17 24 -2 20 6 -1 14 4 17 12 3 9 0 11 -8 6 -9 -5
-11 -4 -6 4 4 6 12 9 17 6 5 -4 9 2 9 12 0 15 2 16 11 3 9 -12 10 -11 6 8 -3
12 -1 20 4 16 5 -3 9 0 9 6 0 6 4 9 9 6 5 -3 12 1 15 10 4 10 2 13 -6 8 -7 -5
-8 -3 -4 5 5 7 15 10 23 7 8 -3 11 -1 8 4 -3 5 -1 18 5 27 11 17 11 17 6 0 -4
-11 -2 -16 5 -11 6 3 9 15 6 25 -3 11 -1 17 4 13 5 -3 9 0 9 5 0 6 6 11 14 11
7 0 20 8 27 17 12 14 12 16 0 9 -9 -6 -12 -5 -9 5 3 8 11 13 17 12 6 -2 11 4
11 12 0 8 5 15 11 15 5 0 7 -5 4 -10 -3 -6 -1 -10 5 -10 6 0 8 11 6 26 -4 21
-2 23 9 14 11 -9 13 -6 11 14 -2 14 0 23 4 21 4 -2 16 3 26 11 10 9 12 12 4 8
-13 -7 -13 -5 -1 9 7 9 20 17 28 17 13 0 13 3 3 15 -11 13 -10 14 5 9 14 -6
16 -4 10 6 -6 10 -4 12 10 6 16 -6 16 -4 4 11 -8 9 -9 14 -3 10 7 -4 15 0 18
9 3 9 13 14 21 11 10 -4 12 -1 8 10 -5 12 -3 14 7 8 10 -6 12 -4 7 8 -4 11 -1
17 8 17 9 0 12 8 10 21 -3 16 0 19 11 15 24 -9 37 3 22 22 -10 12 -10 14 0 8
7 -4 12 -2 12 4 0 6 4 9 9 5 11 -6 25 31 16 44 -3 6 4 8 15 6 15 -3 20 1 18
13 -2 9 3 16 10 15 6 -2 12 5 12 15 0 13 2 14 9 3 6 -9 11 -10 15 -2 4 6 4 16
0 23 -4 6 -3 8 2 5 6 -3 16 -2 24 3 8 5 22 5 32 -1 10 -5 18 -6 18 -1 0 4 9 8
19 8 11 0 18 -3 16 -6 -2 -4 2 -7 9 -7 8 0 12 7 9 16 -3 11 0 10 11 -3 12 -15
16 -16 17 -5 0 8 4 6 9 -6 8 -19 9 -19 9 3 1 21 2 22 17 8 13 -14 17 -14 30
-1 15 14 44 11 44 -6 0 -4 7 -6 15 -3 8 4 12 11 9 16 -4 6 5 2 20 -7 15 -10
26 -13 26 -6 0 15 30 14 31 -1 0 -7 4 -4 9 7 5 11 9 14 9 8 1 -8 12 -11 31 -9
17 2 30 -1 30 -8 0 -6 5 -3 11 7 7 12 15 15 22 9 18 -14 67 -21 67 -9 0 5 8 3
17 -4 10 -8 14 -9 10 -2 -5 8 1 10 20 7 14 -3 31 -8 36 -11 6 -3 7 -1 3 5 -4
7 -2 12 3 12 6 0 11 -5 11 -12 0 -6 7 -3 16 8 8 10 13 13 9 6 -5 -9 2 -11 27
-7 26 4 30 3 18 -6 -13 -9 -13 -10 1 -6 9 3 22 0 28 -6 10 -9 12 -9 9 2 -4 18
36 21 68 5 21 -11 26 -11 31 2 5 12 8 12 20 -3 14 -17 14 -17 8 2 -3 11 -3 16
1 12 4 -4 13 -2 20 4 8 7 14 7 19 -1 3 -5 24 -10 46 -10 28 0 38 4 33 12 -5 7
-3 8 7 2 26 -16 66 -20 97 -10 15 5 22 3 22 -5 0 -7 7 -5 16 7 8 10 13 13 9 6
-5 -9 2 -11 27 -7 26 4 30 3 18 -6 -13 -9 -13 -10 1 -6 9 3 22 0 29 -6 10 -9
11 -9 6 0 -3 6 -2 14 4 18 5 3 10 1 10 -6 0 -7 7 -4 15 7 14 18 14 18 10 -4
-2 -12 0 -22 6 -22 5 0 9 6 9 14 0 11 7 13 30 6 20 -6 30 -5 30 2 0 6 7 5 17
-3 10 -8 14 -9 10 -2 -8 12 22 11 43 -2 6 -3 10 -1 10 6 0 8 4 8 15 -1 12 -10
15 -9 16 6 1 14 3 13 9 -6 4 -14 8 -19 9 -11 1 7 7 11 16 7 8 -3 15 -1 15 3 0
13 29 21 35 10 4 -5 1 -8 -6 -7 -6 2 -14 -4 -16 -12 -4 -13 -3 -13 6 0 6 8 11
11 11 6 0 -5 7 -3 15 4 12 10 15 10 15 -1 0 -8 6 -5 14 7 8 10 18 16 22 11 4
-4 2 -7 -4 -7 -7 0 -12 -5 -12 -10 0 -7 6 -7 18 -2 9 5 22 7 29 5 7 -2 21 1
32 7 14 7 21 7 21 0 0 -5 -5 -10 -12 -10 -6 0 -9 -2 -7 -5 8 -7 49 7 44 15 -7
11 22 6 32 -5 4 -4 3 -5 -3 -2 -6 3 -11 -1 -11 -10 0 -12 5 -11 19 7 17 21 23
16 19 -15 -1 -5 5 -2 12 8 15 17 33 24 23 8 -4 -5 3 -7 14 -4 11 3 17 10 13
16 -3 6 -1 7 5 3 7 -4 12 -15 12 -24 0 -14 2 -13 13 3 11 14 16 15 22 5 5 -9
4 -11 -3 -6 -7 4 -12 2 -12 -3 0 -6 5 -11 10 -11 6 0 10 -8 11 -17 0 -15 2
-15 9 2 5 11 9 14 9 7 1 -18 27 -43 36 -34 4 4 6 0 4 -8 -3 -20 11 -50 24 -50
5 0 2 9 -8 20 -10 11 -14 20 -8 20 5 0 16 -12 24 -27 8 -16 18 -31 23 -35 5
-3 10 -17 11 -30 1 -15 7 -22 19 -20 9 2 16 -4 16 -13 0 -12 6 -15 23 -10 22
7 22 7 2 -9 -14 -11 -15 -14 -4 -10 19 6 58 -42 60 -73 0 -10 3 -13 6 -6 7 18
33 -9 33 -34 0 -15 2 -16 10 -3 8 13 10 13 10 -2 0 -9 13 -25 30 -34 20 -12
26 -21 20 -29 -13 -16 24 -50 41 -39 9 5 10 2 6 -9 -3 -10 -2 -17 4 -17 6 0 7
-6 3 -13 -6 -9 -4 -9 7 1 7 6 18 12 23 12 6 0 4 -5 -4 -10 -13 -9 -13 -11 0
-20 12 -8 13 -10 1 -10 -8 0 -11 -3 -7 -7 4 -5 14 1 22 11 12 18 13 16 9 -13
-3 -27 -1 -30 11 -20 11 9 14 8 14 -10 0 -12 6 -21 14 -21 8 0 18 -5 22 -12 4
-7 3 -8 -4 -4 -7 4 -12 3 -12 -2 0 -11 30 -26 45 -23 6 1 1 -6 -10 -15 -20
-16 -20 -16 3 -9 19 5 23 3 20 -12 -2 -12 3 -18 17 -18 11 0 21 -6 21 -13 1
-6 2 -16 3 -21 0 -5 10 -13 21 -16 11 -3 20 -11 20 -16 0 -6 -6 -7 -12 -4 -7
4 -4 0 6 -9 10 -8 24 -12 30 -9 6 4 5 -1 -3 -10 -12 -16 -12 -17 5 -10 16 6
17 5 6 -9 -11 -14 -10 -17 10 -24 13 -4 27 -7 31 -6 5 1 6 -2 2 -8 -3 -6 -11
-7 -17 -4 -7 5 -8 2 -4 -5 5 -7 14 -10 22 -7 7 3 16 0 20 -6 4 -7 3 -8 -4 -4
-7 4 -12 2 -12 -3 0 -6 5 -11 11 -11 5 0 8 -4 4 -9 -3 -5 0 -13 6 -17 8 -4 9
-3 5 4 -4 7 -2 12 3 12 6 0 11 -12 11 -26 0 -15 4 -23 11 -19 5 4 19 -1 30
-11 14 -13 16 -20 8 -30 -8 -10 -6 -12 10 -9 14 2 18 -1 14 -11 -3 -8 1 -14
11 -14 9 0 16 -5 16 -11 0 -5 -6 -7 -12 -3 -8 5 -8 1 2 -12 22 -29 24 -30 17
-12 -3 10 -3 20 2 22 4 3 8 -1 9 -9 1 -8 3 -22 4 -30 1 -8 5 -12 10 -9 4 3 8
0 8 -5 0 -6 7 -11 16 -11 8 0 12 -5 9 -10 -3 -6 -1 -10 5 -10 6 0 8 -5 4 -12
-5 -8 -2 -9 9 -5 10 4 16 2 14 -6 -1 -7 4 -11 12 -9 12 3 12 0 2 -12 -10 -12
-8 -15 11 -18 15 -2 22 -9 20 -20 -3 -20 14 -25 20 -6 3 7 7 5 11 -6 5 -12 3
-15 -6 -11 -6 4 -4 0 5 -8 10 -8 15 -17 11 -20 -6 -6 12 -11 30 -8 4 0 7 -6 7
-15 0 -9 -5 -12 -12 -8 -7 4 -8 3 -4 -5 6 -9 11 -9 24 1 9 8 13 8 9 2 -6 -11
19 -29 35 -26 4 1 5 -4 2 -12 -3 -8 0 -17 7 -22 8 -5 10 -3 4 6 -5 9 -4 11 4
6 9 -6 9 -11 0 -22 -7 -9 -8 -14 -3 -13 32 5 60 -18 55 -45 -1 -5 6 -3 15 5
12 9 15 9 10 2 -4 -8 -1 -13 9 -13 10 0 13 -5 9 -13 -6 -9 -4 -9 8 1 13 10 18
10 24 1 4 -8 3 -9 -4 -5 -7 4 -12 3 -12 -2 0 -15 28 -22 34 -9 2 7 5 4 5 -6 1
-10 5 -16 10 -12 5 3 12 1 16 -5 3 -5 1 -10 -6 -10 -19 0 -4 -10 22 -15 13 -3
27 1 31 8 6 9 8 9 8 -1 0 -7 4 -11 9 -7 5 3 16 -2 24 -10 9 -8 21 -15 27 -15
6 0 8 -4 5 -10 -3 -5 1 -10 10 -10 9 0 14 4 11 8 -3 5 1 9 9 9 8 0 12 -4 9 -9
-3 -4 0 -8 6 -8 6 0 8 -5 4 -11 -4 -8 0 -8 15 0 11 7 21 8 21 4 0 -4 5 -1 10
7 5 8 10 10 10 4 0 -6 7 -11 15 -11 8 0 15 4 15 8 0 10 30 5 31 -5 0 -4 -3
-11 -7 -14 -4 -4 -4 -1 1 7 6 10 4 12 -5 6 -7 -4 -26 -9 -42 -10 -49 -4 -42
-13 9 -10 26 2 56 4 66 4 9 1 17 6 17 12 0 5 -6 7 -12 3 -9 -5 -9 -2 1 9 14
18 26 23 16 8 -3 -5 -1 -12 5 -16 6 -4 7 -11 4 -17 -4 -7 -2 -8 4 -4 6 4 9 14
6 24 -5 14 -3 14 10 -2 16 -20 16 -20 16 0 0 12 7 21 15 21 8 0 11 -5 8 -10
-3 -5 0 -8 8 -5 8 3 14 10 14 16 0 5 4 14 9 19 5 5 6 2 1 -6 -5 -9 -3 -12 6
-9 8 3 13 11 11 17 -1 7 2 10 8 6 6 -3 8 -11 5 -16 -4 -5 -1 -9 4 -9 6 0 11
10 11 23 0 14 3 18 8 10 6 -10 30 -11 52 -3 3 1 8 2 13 1 11 -2 9 6 -7 22 -13
12 -9 14 25 11 23 -1 37 1 33 7 -3 5 -10 6 -16 3 -6 -4 -8 -2 -4 4 3 6 15 9
26 7 13 -3 17 1 13 11 -4 10 0 12 13 7 14 -5 16 -3 11 12 -7 16 -5 16 9 4 16
-13 16 -12 5 8 -10 20 -9 22 6 16 12 -5 15 -2 10 10 -3 9 -3 16 1 16 20 -3 32
2 32 15 0 8 5 16 10 18 6 2 12 13 13 25 1 18 4 20 20 11 16 -8 17 -7 7 11 -8
16 -8 21 1 21 8 0 8 5 -1 16 -8 8 -9 14 -4 13 5 -1 18 -1 29 0 17 1 18 3 5 11
-11 7 -11 10 -2 10 7 0 11 4 8 9 -8 13 4 42 15 35 5 -3 6 2 3 10 -3 9 -9 14
-13 11 -4 -2 -8 2 -8 10 0 10 5 11 18 4 11 -6 20 -5 24 1 6 9 -1 14 -17 11 -4
0 -5 6 -2 14 4 8 9 13 13 10 4 -2 8 2 8 10 0 8 -4 12 -9 9 -15 -10 -8 9 10 23
9 8 12 12 5 9 -6 -4 -14 -2 -18 4 -3 5 0 10 7 10 9 0 13 16 13 53 0 28 6 58
13 65 6 8 10 18 7 23 -4 5 0 9 7 9 7 1 2 7 -11 14 -23 13 -23 14 -5 20 21 6
29 56 10 56 -6 0 -4 5 4 10 13 9 13 10 0 11 -8 1 -19 1 -24 0 -5 -1 -4 4 2 12
7 8 8 18 4 22 -4 5 -2 5 4 2 13 -8 24 13 24 44 0 12 -4 17 -11 13 -6 -3 -4 5
6 19 12 19 13 27 4 33 -8 5 -10 3 -4 -7 8 -12 6 -12 -8 0 -18 14 -24 26 -8 17
4 -3 17 1 27 10 18 15 18 15 -2 9 -18 -5 -21 -1 -18 22 1 16 2 34 3 41 1 6 6
12 12 12 5 0 7 -5 3 -12 -4 -7 -3 -8 5 -4 8 5 5 16 -11 39 -12 17 -16 27 -9
22 11 -6 12 -2 7 19 -4 15 -3 25 1 23 5 -3 9 14 8 37 0 27 -4 42 -11 39 -12
-5 -12 53 1 64 4 5 5 3 1 -4 -3 -6 -2 -14 2 -17 12 -7 9 41 -2 51 -5 5 -6 2
-1 -6 6 -10 4 -12 -5 -6 -11 7 -10 10 1 19 19 15 17 105 -2 117 -11 7 -11 9 3
9 9 0 20 5 24 12 4 7 3 8 -5 4 -8 -6 -11 3 -9 29 1 23 -3 40 -12 45 -12 8 -11
10 4 10 19 0 19 0 0 22 -10 12 -13 18 -6 14 8 -5 12 1 12 19 0 17 -4 24 -12
19 -7 -4 -8 -3 -4 5 4 6 11 9 16 6 5 -3 12 0 16 6 4 8 3 9 -4 5 -7 -4 -12 -1
-12 8 0 8 3 16 8 19 4 2 2 2 -5 1 -6 -2 -14 3 -17 11 -3 10 0 12 12 8 14 -5
15 -3 4 8 -14 15 -16 33 -3 25 4 -3 8 7 7 22 -1 17 4 26 12 24 8 -1 11 2 7 8
-3 6 -10 8 -14 6 -4 -3 -9 20 -10 51 -1 31 -6 63 -12 70 -8 9 -7 14 4 19 9 3
13 12 10 21 -5 12 -3 14 7 8 9 -6 11 -4 6 4 -5 7 -15 10 -25 7 -14 -5 -13 -4
2 8 20 15 23 31 5 20 -7 -4 -10 -4 -6 1 4 4 2 15 -4 24 -10 13 -10 14 2 3 20
-17 26 -15 27 10 2 16 0 19 -6 9 -6 -9 -10 -3 -13 18 -3 18 0 35 5 38 6 3 7 1
3 -5 -11 -18 0 -14 15 5 12 14 12 16 0 8 -11 -6 -13 -4 -8 8 8 22 -2 22 -20 0
-13 -16 -13 -16 -4 3 6 12 7 25 3 29 -4 4 4 4 18 0 23 -7 23 -7 -5 20 -17 15
-23 22 -14 16 13 -9 19 -8 29 4 11 13 10 14 -6 9 -18 -7 -18 -6 1 16 11 13 15
21 10 17 -13 -7 -38 30 -26 38 12 7 8 29 -6 47 -8 10 -9 18 -1 28 8 12 9 12 4
-2 -3 -11 2 -21 14 -28 16 -9 18 -7 15 11 -2 12 -10 28 -17 37 -11 13 -11 15
2 10 12 -4 16 1 15 22 0 24 -2 26 -15 17 -8 -6 -12 -7 -8 -3 4 5 3 15 -2 22
-8 9 -6 12 6 10 9 0 18 7 19 17 2 9 -1 15 -6 11 -5 -3 -7 -10 -4 -15 10 -15
-2 -10 -16 8 -10 11 -10 14 -1 9 7 -4 12 -1 12 9 0 9 3 14 8 12 4 -3 7 8 7 23
1 26 -1 27 -20 18 -13 -7 -15 -13 -7 -16 6 -2 12 -8 12 -14 0 -6 -6 -5 -15 2
-11 9 -12 16 -4 26 6 7 8 18 4 23 -3 7 0 8 9 5 25 -9 19 12 -6 25 -22 11 -21
11 5 6 l29 -6 -26 24 c-21 20 -23 26 -11 30 8 4 14 1 12 -5 -1 -6 5 -13 13
-15 12 -4 12 -3 2 5 -8 5 -13 12 -13 16 3 20 0 26 -11 20 -7 -5 -8 -3 -2 7 5
8 9 19 9 24 1 6 7 9 14 7 7 -1 10 2 6 8 -5 8 -11 7 -21 -1 -8 -6 -17 -9 -21
-5 -3 3 -1 6 5 6 7 0 12 7 12 16 0 9 -5 13 -13 9 -6 -4 -2 2 11 13 26 24 27
29 7 29 -8 0 -12 -3 -10 -7 2 -4 -2 -7 -10 -7 -11 0 -12 4 -4 14 9 10 8 18 -2
31 -11 13 -9 13 9 -3 l23 -19 -10 27 c-6 15 -7 27 -3 27 4 0 0 5 -8 10 -12 8
-12 10 5 10 18 1 18 2 -4 14 -20 11 -21 14 -6 19 9 4 15 13 12 20 -2 6 0 20 5
30 6 12 5 17 -3 15 -7 -2 -15 6 -17 16 -3 15 0 17 14 12 18 -6 18 -5 2 8 -19
14 -23 31 -10 39 4 2 2 2 -5 1 -6 -2 -14 4 -17 12 -8 21 -8 24 5 24 5 0 8 -4
5 -8 -3 -5 2 -9 11 -9 13 0 11 4 -6 18 -21 18 -33 65 -24 100 3 10 10 16 15
13 5 -3 4 3 -3 14 -7 12 -18 18 -24 15 -5 -3 -4 0 3 8 14 15 17 33 4 25 -5 -3
-9 1 -9 9 0 8 4 12 9 9 4 -3 8 0 8 5 0 6 -7 11 -16 11 -8 0 -12 5 -9 10 4 6
10 8 14 6 4 -3 8 1 8 10 0 10 -7 12 -21 8 -12 -3 -16 -2 -10 3 16 12 26 61 14
68 -6 4 -8 11 -5 16 4 5 2 9 -4 9 -6 0 -7 7 -4 17 4 10 2 14 -5 9 -6 -3 -14
-1 -18 5 -4 7 -3 9 2 6 6 -3 16 -2 24 4 13 7 12 9 -2 9 -9 0 -20 4 -23 10 -4
6 1 7 11 3 14 -5 15 -3 6 12 -6 12 -7 28 -1 42 5 12 5 22 1 22 -21 -4 -24 3
-6 16 10 8 15 15 9 14 -29 -4 -36 1 -25 20 8 16 6 23 -12 35 -16 11 -18 16 -7
16 8 0 19 -3 25 -7 5 -5 -4 5 -21 20 -16 16 -25 26 -20 24 6 -3 16 6 22 20 11
22 10 26 -8 30 -16 5 -17 8 -7 21 10 12 10 14 1 8 -7 -4 -13 -3 -13 1 0 5 6
15 13 22 6 7 8 12 2 11 -22 -5 -36 0 -30 10 4 6 12 7 18 3 8 -5 8 -2 0 9 -7 8
-9 19 -5 23 4 5 1 5 -6 1 -7 -4 -9 -13 -6 -19 4 -7 3 -8 -2 -4 -4 4 -7 23 -6
42 3 23 -2 37 -15 45 -16 10 -15 10 7 6 14 -3 19 -3 12 0 -6 3 -9 10 -6 16 4
6 -2 8 -17 4 -24 -7 -24 -7 1 8 25 15 25 15 3 16 -25 0 -30 14 -11 26 7 5 8 3
3 -6 -5 -9 -4 -11 4 -6 14 9 5 26 -13 26 -7 0 -13 7 -13 15 0 12 3 12 15 2 13
-10 14 -9 2 10 -8 12 -18 19 -22 17 -4 -3 -8 -1 -8 5 0 5 6 12 13 14 10 4 10
6 0 6 -7 1 -13 10 -13 22 0 11 -4 18 -8 15 -7 -4 -12 17 -15 62 0 6 -5 12 -10
12 -5 0 -4 7 3 15 10 12 9 16 -4 21 -10 4 -15 13 -12 21 3 8 1 11 -4 8 -6 -3
-10 -1 -10 5 0 6 -6 8 -12 4 -10 -6 -10 -4 0 7 17 18 15 32 -4 25 -8 -3 -13
-2 -9 3 3 5 -1 12 -7 15 -7 3 -2 3 12 0 l25 -5 -25 15 c-15 10 -19 15 -10 16
13 0 13 1 0 10 -8 5 -11 10 -6 10 5 0 1 9 -9 20 -10 11 -21 18 -25 15 -4 -2
-7 2 -7 10 0 11 4 12 14 3 7 -6 16 -8 20 -4 3 3 1 6 -5 6 -7 0 -12 5 -12 11 0
5 5 7 12 3 7 -4 8 -3 4 4 -4 6 -13 9 -20 6 -8 -3 -17 -1 -21 5 -4 7 0 8 11 4
11 -4 15 -3 10 5 -3 6 -1 14 5 18 8 4 9 3 5 -4 -4 -7 -2 -12 5 -12 6 0 9 8 6
20 -4 14 0 20 11 20 12 1 10 5 -8 16 -14 8 -17 13 -8 10 9 -3 19 2 22 10 9 24
7 31 -4 14 -8 -13 -10 -12 -11 5 -1 11 -2 27 -3 35 0 8 4 18 9 22 6 4 0 8 -12
8 -15 0 -21 5 -17 14 3 7 -2 16 -10 19 -9 4 -16 12 -16 19 0 9 3 9 11 -2 9
-12 10 -12 5 3 -3 10 -6 21 -6 23 0 3 -6 2 -12 -2 -10 -6 -10 -5 -1 7 10 13
10 16 -2 16 -8 0 -15 -5 -15 -10 0 -6 -3 -7 -6 -4 -4 4 -1 13 6 22 10 12 10
15 -4 15 -19 0 -22 26 -3 34 6 4 2 4 -11 2 -19 -4 -21 -2 -11 10 9 11 9 14 0
14 -7 0 -9 5 -5 13 5 7 2 7 -10 -2 -15 -12 -17 -12 -14 0 2 8 8 17 13 21 6 5
5 8 -2 9 -28 3 -32 4 -40 13 -5 5 -3 6 5 2 18 -11 15 5 -5 21 -10 8 -12 12 -5
8 6 -3 12 -1 12 4 0 6 -9 11 -20 11 -11 0 -20 4 -20 10 0 5 8 7 18 4 9 -3 4 3
-13 12 -16 10 -33 17 -37 16 -4 -1 -3 9 2 23 10 27 4 34 -23 30 -15 -3 -16 -1
-5 13 10 12 10 14 1 8 -8 -4 -13 -2 -13 4 0 6 -5 8 -12 4 -8 -5 -7 0 2 11 9
11 10 16 3 11 -8 -4 -13 -2 -13 4 0 6 -4 8 -10 5 -5 -3 -10 1 -10 10 0 9 -4
13 -10 10 -9 -5 -15 15 -11 38 2 12 -17 8 -22 -5 -3 -8 -6 -5 -6 6 -1 15 -4
16 -16 6 -21 -17 -19 -5 2 16 16 16 16 16 -3 10 -15 -5 -29 3 -52 28 -17 19
-28 37 -25 40 4 3 -1 6 -11 6 -10 0 -14 -5 -10 -12 4 -7 3 -8 -4 -4 -6 4 -9
13 -5 21 3 8 0 15 -6 15 -6 0 -11 -6 -12 -12 -1 -7 -4 -2 -8 12 -5 18 -13 24
-29 22 -12 -2 -22 2 -22 7 0 6 -7 11 -16 11 -8 0 -12 5 -9 10 3 6 -1 10 -10
10 -9 0 -13 5 -9 11 5 8 1 8 -13 0 -25 -13 -37 -3 -20 17 8 11 9 14 0 9 -7 -4
-17 0 -23 10 -11 17 -11 17 -6 0 5 -14 2 -16 -13 -8 -10 6 -21 7 -25 4 -3 -3
-6 -1 -6 5 0 5 6 13 13 15 8 4 9 6 0 6 -6 1 -20 -7 -29 -16 -15 -15 -17 -15
-12 -2 3 9 2 22 -3 30 -7 12 -9 12 -9 0 0 -11 -3 -11 -15 -1 -8 6 -20 8 -26 4
-7 -4 -9 -3 -5 4 4 6 -4 12 -21 14 -16 2 -28 8 -28 15 0 6 -4 15 -9 20 -5 5
-6 3 -2 -4 4 -7 2 -13 -3 -13 -6 0 -11 6 -11 13 0 9 -3 8 -9 -2 -6 -9 -10 -10
-12 -2 -3 7 -14 13 -27 14 -12 0 -22 5 -22 10 0 5 -10 8 -22 7 -40 -4 -50 -1
-42 13 5 7 0 6 -11 -3 -11 -9 -16 -10 -11 -2 4 6 2 12 -3 12 -6 0 -11 -6 -11
-12 0 -9 -3 -8 -9 2 -6 8 -7 18 -5 22 3 5 2 8 -3 7 -4 -1 -16 1 -25 5 -10 5
-28 0 -45 -10 l-28 -18 20 24 c11 14 13 19 5 13 -17 -16 -64 -17 -55 -2 4 6
-3 5 -14 -3 -18 -11 -23 -11 -30 1 -7 11 -9 11 -14 0 -5 -12 -6 -12 -6 0 -1
11 -4 11 -18 0 -10 -8 -14 -9 -10 -2 4 6 3 14 -3 18 -5 3 -10 -2 -10 -11 0
-16 -1 -16 -15 2 -10 13 -14 15 -15 5 0 -11 -5 -9 -22 5 -20 16 -21 17 -9 1
12 -15 12 -20 1 -30 -10 -9 -11 -9 -6 1 4 6 3 12 -2 12 -10 0 -25 -37 -23 -53
1 -5 -3 -6 -9 -2 -8 5 -7 12 2 23 12 15 11 16 -4 3 -10 -7 -15 -18 -11 -24 4
-6 0 -8 -11 -4 -12 5 -15 3 -9 -6 15 -24 11 -35 -11 -30 -18 5 -19 4 -6 -8 8
-8 13 -13 11 -12 -2 2 -11 -3 -19 -10 -10 -8 -13 -8 -9 -1 4 7 0 14 -8 17 -9
4 -12 1 -9 -7 3 -7 -2 -13 -11 -13 -9 0 -14 6 -11 13 3 8 0 16 -6 20 -7 4 -8
3 -4 -4 4 -7 2 -12 -4 -12 -6 0 -8 -6 -4 -12 4 -7 -4 -3 -18 10 -13 12 -28 22
-32 22 -4 0 -5 -10 -2 -22 3 -13 3 -17 0 -10 -4 9 -10 10 -18 3 -9 -8 -13 -7
-13 4 0 8 5 11 11 8 6 -3 7 -2 3 2 -14 16 -36 14 -30 -3 4 -15 3 -15 -9 -2 -7
8 -20 16 -28 18 -10 3 -9 -3 5 -19 l20 -22 -22 14 c-13 8 -23 19 -23 26 0 6
-4 14 -9 17 -5 4 -7 -4 -4 -16 3 -17 2 -19 -5 -9 -8 11 -16 11 -41 3 -19 -7
-33 -7 -36 -1 -4 5 -1 9 6 9 7 0 9 3 6 7 -4 3 -17 -2 -29 -13 -18 -16 -20 -17
-15 -2 4 13 1 16 -15 13 -12 -3 -26 -9 -32 -15 -15 -15 -26 -12 -26 8 -1 16
-1 16 -11 0 -5 -10 -15 -18 -22 -18 -8 0 -7 3 2 9 9 6 -3 10 -38 12 -38 3 -50
1 -46 -9 3 -7 -6 -5 -22 5 -26 17 -27 17 -20 -1 8 -19 7 -19 -12 -2 -14 13
-20 14 -23 4 -7 -20 -41 -15 -55 7 -7 12 -12 15 -13 6 0 -8 -6 -11 -16 -7 -8
3 -12 2 -9 -3 3 -5 1 -12 -5 -16 -5 -3 -10 1 -10 9 0 19 -16 21 -26 4 -5 -7
-3 -8 6 -3 9 6 11 4 6 -4 -5 -7 -11 -10 -14 -7 -3 3 -10 1 -17 -4 -8 -7 -12
-5 -12 5 0 8 4 12 9 9 4 -3 8 -1 8 4 0 5 -24 7 -52 6 -29 -2 -70 -4 -90 -5
-20 -1 -45 4 -54 12 -12 9 -15 10 -10 2 5 -9 0 -13 -16 -13 -13 0 -30 -6 -37
-12 -8 -8 -11 -8 -8 -2 4 7 0 17 -8 24 -13 11 -14 10 -9 -4 3 -9 1 -16 -5 -16
-7 0 -14 7 -17 15 -6 14 -8 13 -19 -1 -8 -12 -14 -14 -19 -5 -4 6 -12 9 -17 5
-5 -3 -16 0 -24 6 -11 9 -15 9 -15 1 0 -7 -15 -10 -40 -7 -23 2 -40 -1 -40 -6
0 -6 8 -7 18 -3 14 5 15 4 4 -7 -11 -11 -16 -10 -28 6 -8 12 -14 15 -14 7 0
-11 -3 -11 -17 0 -11 10 -14 10 -9 2 4 -8 1 -13 -8 -13 -10 0 -13 6 -10 18 4
10 2 13 -3 7 -14 -17 -47 -41 -40 -29 4 7 0 15 -9 18 -8 3 -13 2 -10 -3 3 -5
-1 -12 -10 -15 -8 -3 -13 -2 -10 3 3 5 -1 12 -10 15 -9 4 -13 2 -8 -5 4 -8 -1
-9 -15 -4 -40 13 -80 14 -87 3 -5 -7 -2 -8 7 -3 8 5 11 4 6 -1 -14 -15 -41
-10 -60 11 -10 11 -16 15 -13 8 5 -8 -5 -11 -31 -9 -24 2 -45 -3 -57 -13 -11
-9 -16 -10 -12 -3 4 6 2 12 -4 12 -6 0 -8 5 -4 12 4 7 3 8 -5 4 -6 -4 -8 -12
-5 -18 5 -8 1 -9 -12 -3 -23 9 -84 13 -84 5 0 -3 6 -12 13 -20 6 -8 0 -4 -16
10 -22 20 -29 21 -40 10 -10 -10 -9 -11 3 -5 8 5 12 4 7 0 -16 -18 -44 -14
-55 8 l-11 22 -1 -25 c-1 -23 -2 -23 -10 -5 -5 11 -9 14 -9 6 -1 -11 -4 -11
-18 0 -11 10 -14 10 -9 2 4 -8 1 -13 -8 -13 -10 0 -13 6 -10 18 4 10 2 13 -3
7 -14 -17 -47 -41 -40 -29 4 7 0 15 -9 18 -8 3 -13 2 -10 -3 3 -5 -1 -12 -10
-15 -8 -3 -13 -2 -10 3 3 5 -1 12 -10 15 -8 3 -12 2 -9 -4 7 -11 7 -11 -47
-14 -20 -1 -34 2 -32 6 2 3 0 9 -6 13 -5 3 -10 1 -10 -6 0 -8 -5 -7 -17 2 -11
10 -14 10 -9 2 4 -8 1 -13 -8 -13 -11 0 -13 6 -9 18 7 16 6 16 -11 0 -14 -15
-21 -16 -39 -6 -19 10 -20 9 -10 -3 10 -12 8 -15 -7 -15 -11 0 -17 2 -15 5 7
6 -29 30 -37 25 -5 -3 -8 -11 -8 -17 0 -8 3 -8 9 2 6 9 11 10 15 2 4 -6 4 -11
-1 -12 -4 0 -18 -2 -30 -3 -19 -2 -21 0 -10 12 10 13 9 14 -9 4 -12 -6 -24 -8
-28 -5 -10 10 -55 12 -61 2 -3 -5 1 -6 9 -3 9 3 16 1 16 -4 0 -12 -43 -6 -73
9 -14 8 -18 8 -13 0 9 -14 0 -14 -27 1 -21 10 -21 10 -7 -7 14 -17 13 -17 -5
-8 -11 6 -26 8 -34 5 -8 -2 -11 0 -8 5 3 5 0 10 -8 10 -10 0 -12 -4 -5 -12 7
-9 5 -17 -7 -26 -17 -13 -17 -13 -3 5 14 18 13 18 -9 11 -16 -5 -21 -4 -17 4
4 6 5 11 1 11 -3 0 -10 -10 -15 -22 l-9 -23 0 23 c-1 12 -5 22 -11 22 -5 0 -6
-8 -3 -17 6 -16 5 -17 -12 -3 -17 13 -18 13 -13 -1 4 -9 1 -16 -8 -16 -7 0
-11 4 -8 8 2 4 -5 7 -16 6 -13 -1 -19 -6 -15 -15 2 -7 0 -10 -5 -7 -6 3 -10
14 -10 23 -1 16 -1 16 -11 0 -5 -10 -15 -18 -21 -18 -9 0 -9 3 0 12 7 7 12 16
12 21 0 5 -8 1 -17 -9 -17 -17 -18 -16 -21 15 -3 30 -5 31 -17 15 -11 -16 -12
-15 -10 10 3 20 0 26 -10 22 -8 -3 -17 0 -21 6 -4 7 -3 8 4 4 7 -4 12 -3 12 2
0 6 -7 13 -16 16 -9 3 -12 11 -8 18 5 8 0 7 -11 -2 -10 -8 -16 -10 -12 -4 6
11 -11 23 -41 30 -7 1 -24 -10 -38 -24z m62 -1 c1 -6 0 -7 -3 -1 -3 7 -11 7
-24 0 -17 -10 -27 -1 -13 12 9 10 38 2 40 -11z m-171 -21 c3 -6 -1 -7 -9 -4
-18 7 -21 14 -7 14 6 0 13 -4 16 -10z m3453 -2 c7 -7 12 -17 12 -22 0 -6 -4
-5 -9 3 -7 11 -13 12 -23 3 -11 -9 -14 -7 -15 9 -2 21 17 25 35 7z m-2744 -84
c3 -8 2 -12 -4 -9 -6 3 -10 10 -10 16 0 14 7 11 14 -7z m741 6 c3 -5 1 -10 -4
-10 -6 0 -11 5 -11 10 0 6 2 10 4 10 3 0 8 -4 11 -10z m40 0 c3 -5 1 -10 -4
-10 -6 0 -11 5 -11 10 0 6 2 10 4 10 3 0 8 -4 11 -10z m140 1 c3 -5 2 -12 -3
-15 -5 -3 -9 1 -9 9 0 17 3 19 12 6z m260 -1 c3 -5 1 -10 -4 -10 -6 0 -11 5
-11 10 0 6 2 10 4 10 3 0 8 -4 11 -10z m49 2 c3 -5 -1 -9 -9 -9 -8 0 -15 4
-15 9 0 4 4 8 9 8 6 0 12 -4 15 -8z m181 -2 c-3 -5 -12 -10 -18 -10 -7 0 -6 4
3 10 19 12 23 12 15 0z m150 1 c3 -5 2 -12 -3 -15 -5 -3 -9 1 -9 9 0 17 3 19
12 6z m713 -26 c-3 -3 -9 2 -12 12 -6 14 -5 15 5 6 7 -7 10 -15 7 -18z m-2448
5 c0 -5 -2 -10 -4 -10 -3 0 -8 5 -11 10 -3 6 -1 10 4 10 6 0 11 -4 11 -10z
m-1104 -112 c4 -7 3 -8 -4 -4 -7 4 -12 2 -12 -3 0 -6 -5 -11 -11 -11 -8 0 -8
5 1 15 15 18 17 18 26 3z m4857 -303 c-3 -9 -8 -14 -10 -11 -3 3 -2 9 2 15 9
16 15 13 8 -4z m-5258 -95 c-3 -5 -11 -10 -16 -10 -6 0 -7 5 -4 10 3 6 11 10
16 10 6 0 7 -4 4 -10z m5480 -499 c3 -5 2 -12 -3 -15 -5 -3 -9 1 -9 9 0 17 3
19 12 6z m-5649 -35 c1 -7 -4 -13 -12 -13 -9 0 -11 4 -4 12 5 7 8 15 5 18 -3
4 -2 5 2 2 4 -3 8 -11 9 -19z m5692 -111 c-3 -3 -9 2 -12 12 -6 14 -5 15 5 6
7 -7 10 -15 7 -18z m167 -495 c-3 -5 -11 -10 -16 -10 -6 0 -7 5 -4 10 3 6 11
10 16 10 6 0 7 -4 4 -10z m19 -188 c3 -5 -1 -9 -9 -9 -8 0 -12 4 -9 9 3 4 7 8
9 8 2 0 6 -4 9 -8z m36 -161 c0 -6 -4 -12 -8 -15 -5 -3 -9 1 -9 9 0 8 4 15 9
15 4 0 8 -4 8 -9z m-6188 -285 c7 4 8 2 4 -5 -9 -13 -26 -5 -25 12 0 9 2 8 6
-1 2 -6 10 -9 15 -6z m-1 -63 c13 -16 12 -17 -3 -4 -10 7 -18 15 -18 17 0 8 8
3 21 -13z m6229 -27 c0 -3 -4 -8 -10 -11 -5 -3 -10 -1 -10 4 0 6 5 11 10 11 6
0 10 -2 10 -4z m8 -71 c0 -14 -1 -25 -2 -23 -1 2 -8 12 -16 22 -10 13 -10 17
-2 12 6 -4 12 -2 12 3 0 6 2 11 4 11 2 0 4 -11 4 -25z m-6268 -420 c0 -2 -6
-5 -13 -8 -8 -3 -14 1 -14 8 0 7 6 11 14 8 7 -3 13 -6 13 -8z m0 -31 c0 -8
-19 -13 -24 -6 -3 5 1 9 9 9 8 0 15 -2 15 -3z m-17 -79 c-3 -8 1 -15 8 -15 7
0 10 -2 7 -5 -3 -3 -13 -3 -22 1 -12 4 -14 10 -6 19 5 6 6 16 2 20 -4 5 -2 5
5 1 7 -4 10 -13 6 -21z m-7 -273 c-17 -16 -18 -16 -5 5 7 12 15 20 18 17 3 -2
-3 -12 -13 -22z m14 -32 c0 -5 -2 -10 -4 -10 -3 0 -8 5 -11 10 -3 6 -1 10 4
10 6 0 11 -4 11 -10z m-10 -120 c0 -5 -5 -10 -11 -10 -5 0 -7 5 -4 10 3 6 8
10 11 10 2 0 4 -4 4 -10z m-3 -109 c-1 -15 -4 -17 -14 -9 -7 5 -10 14 -7 19
10 16 23 9 21 -10z m6298 -71 c3 -5 1 -10 -4 -10 -6 0 -11 5 -11 10 0 6 2 10
4 10 3 0 8 -4 11 -10z m-6298 -6 c-3 -3 -12 -4 -19 -1 -8 3 -5 6 6 6 11 1 17
-2 13 -5z m-12 -254 c-3 -5 -11 -10 -16 -10 -6 0 -7 5 -4 10 3 6 11 10 16 10
6 0 7 -4 4 -10z m4275 -144 c0 -2 -7 -7 -16 -10 -8 -3 -12 -2 -9 4 6 10 25 14
25 6z m-4270 -56 c0 -5 -7 -7 -15 -4 -8 4 -15 8 -15 10 0 2 7 4 15 4 8 0 15
-4 15 -10z m4484 -206 c5 -14 4 -15 -9 -4 -17 14 -19 20 -6 20 5 0 12 -7 15
-16z m1816 -234 c0 -5 -5 -10 -11 -10 -5 0 -7 5 -4 10 3 6 8 10 11 10 2 0 4
-4 4 -10z m-6 -121 c-3 -5 -11 -9 -17 -8 -8 0 -8 2 1 6 10 4 10 8 0 21 -12 15
-11 16 4 3 10 -7 15 -17 12 -22z m-6274 7 c0 -2 -7 -7 -16 -10 -8 -3 -12 -2
-9 4 6 10 25 14 25 6z m6266 -73 c-2 -9 -9 -19 -17 -21 -11 -3 -11 -1 1 7 8 6
11 11 7 11 -5 0 -5 5 -2 10 9 15 14 12 11 -7z m-6141 -401 c-3 -3 -11 0 -18 7
-9 10 -8 11 6 5 10 -3 15 -9 12 -12z m1026 -5 c-10 -9 -11 -8 -5 6 3 10 9 15
12 12 3 -3 0 -11 -7 -18z m-211 -171 c0 -3 -4 -8 -10 -11 -5 -3 -10 -1 -10 4
0 6 5 11 10 11 6 0 10 -2 10 -4z m4491 -29 c-10 -9 -11 -8 -5 6 3 10 9 15 12
12 3 -3 0 -11 -7 -18z m-4601 -21 c-7 -7 -13 -7 -20 0 -6 6 -3 10 10 10 13 0
16 -4 10 -10z m-368 -10 c7 4 8 2 4 -5 -9 -13 -26 -5 -25 12 0 9 2 8 6 -1 2
-6 10 -9 15 -6z m228 -31 c0 -8 -4 -15 -10 -15 -5 0 -7 7 -4 15 4 8 8 15 10
15 2 0 4 -7 4 -15z"/>
<path d="M2525 5400 c-4 -6 -11 -7 -17 -4 -7 4 -8 2 -4 -5 6 -9 11 -9 21 -1
10 8 14 7 18 -2 4 -9 6 -9 6 -1 1 16 -16 26 -24 13z"/>
<path d="M5230 5390 c0 -5 5 -10 11 -10 5 0 7 5 4 10 -3 6 -8 10 -11 10 -2 0
-4 -4 -4 -10z"/>
<path d="M1090 5329 c0 -5 5 -7 10 -4 6 3 10 8 10 11 0 2 -4 4 -10 4 -5 0 -10
-5 -10 -11z"/>
<path d="M5645 5140 c21 -24 26 -25 19 -6 -3 8 -13 17 -22 21 -13 5 -13 2 3
-15z"/>
<path d="M695 5060 c-3 -5 -2 -10 4 -10 5 0 13 5 16 10 3 6 2 10 -4 10 -5 0
-13 -4 -16 -10z"/>
<path d="M5840 4931 c0 -6 4 -13 10 -16 6 -3 7 1 4 9 -7 18 -14 21 -14 7z"/>
<path d="M6334 3126 c0 -13 4 -22 8 -20 9 6 6 44 -3 44 -4 0 -6 -11 -5 -24z"/>
<path d="M6346 3092 c-3 -5 1 -9 9 -9 8 0 12 4 9 9 -3 4 -7 8 -9 8 -2 0 -6 -4
-9 -8z"/>
<path d="M75 2880 c-3 -5 -1 -10 4 -10 6 0 11 5 11 10 0 6 -2 10 -4 10 -3 0
-8 -4 -11 -10z"/>
<path d="M65 2551 c6 -11 4 -13 -8 -8 -23 9 -21 0 2 -13 15 -7 19 -7 17 5 -1
8 -6 18 -11 22 -4 5 -5 2 0 -6z"/>
<path d="M6385 2283 c3 -3 0 -12 -5 -18 -7 -9 -6 -14 3 -18 14 -5 17 28 4 38
-4 3 -5 2 -2 -2z"/>
<path d="M39 2183 c-13 -16 -12 -17 4 -4 9 7 17 15 17 17 0 8 -8 3 -21 -13z"/>
<path d="M6375 1920 c-16 -7 -17 -9 -3 -9 9 -1 20 4 23 9 7 11 7 11 -20 0z"/>
<path d="M13 1657 c-3 -7 -3 -9 2 -5 4 4 14 3 21 -3 7 -6 15 -6 18 -1 3 6 -3
12 -14 15 -11 3 -23 0 -27 -6z"/>
<path d="M16 1567 c-16 -12 -16 -14 -3 -14 9 0 18 6 21 14 3 7 4 13 3 13 -2 0
-11 -6 -21 -13z"/>
<path d="M2515 1549 c-4 -6 -4 -13 -1 -16 3 -4 6 -1 6 6 0 7 5 9 12 5 7 -4 8
-3 4 4 -9 15 -13 15 -21 1z"/>
<path d="M2756 1547 c3 -10 9 -15 12 -12 3 3 0 11 -7 18 -10 9 -11 8 -5 -6z"/>
<path d="M3184 1548 c-4 -7 -4 -10 1 -6 4 4 15 2 24 -5 14 -11 14 -10 2 6 -16
20 -18 21 -27 5z"/>
<path d="M3296 1538 c3 -5 10 -6 15 -3 13 9 11 12 -6 12 -8 0 -12 -4 -9 -9z"/>
<path d="M24 1462 c4 -7 2 -12 -3 -12 -6 0 -11 -4 -11 -10 0 -15 17 -12 23 5
4 8 1 17 -5 21 -7 4 -8 3 -4 -4z"/>
<path d="M5 1239 c-4 -6 -4 -13 -1 -16 3 -4 6 -1 6 6 0 7 5 9 12 5 7 -4 8 -3
4 4 -9 15 -13 15 -21 1z"/>
<path d="M23 1213 c-15 -5 -17 -23 -4 -23 5 0 11 7 15 15 3 8 4 15 3 14 -1 0
-8 -3 -14 -6z"/>
<path d="M4490 1150 c0 -5 5 -10 11 -10 5 0 7 5 4 10 -3 6 -8 10 -11 10 -2 0
-4 -4 -4 -10z"/>
<path d="M0 1111 c0 -6 4 -13 10 -16 6 -3 7 1 4 9 -7 18 -14 21 -14 7z"/>
<path d="M6363 1014 c0 -7 6 -10 14 -7 7 3 13 8 13 12 0 4 -6 8 -13 8 -8 0
-14 -6 -14 -13z"/>
<path d="M10 979 c0 -5 5 -7 10 -4 6 3 10 8 10 11 0 2 -4 4 -10 4 -5 0 -10 -5
-10 -11z"/>
<path d="M6362 834 c-7 -8 -8 -14 -3 -14 10 0 25 19 20 25 -2 1 -10 -3 -17
-11z"/>
<path d="M1505 600 c-3 -6 1 -7 9 -4 18 7 21 14 7 14 -6 0 -13 -4 -16 -10z"/>
<path d="M4950 606 c0 -2 7 -7 16 -10 8 -3 12 -2 9 4 -6 10 -25 14 -25 6z"/>
<path d="M6271 324 c0 -11 3 -14 6 -6 3 7 2 16 -1 19 -3 4 -6 -2 -5 -13z"/>
<path d="M5276 247 c3 -10 9 -15 12 -12 3 3 0 11 -7 18 -10 9 -11 8 -5 -6z"/>
<path d="M5554 59 c-4 -7 -3 -9 4 -5 5 3 13 0 15 -6 4 -9 6 -10 6 -1 1 17 -16
25 -25 12z"/>
<path d="M625 21 c-6 -11 13 -26 22 -17 4 3 0 6 -8 6 -11 0 -11 2 1 10 9 6 10
10 3 10 -6 0 -14 -4 -18 -9z"/>
</g>
</svg>
