<?xml version="1.0" encoding="UTF-8" standalone="no"?>
<svg
   xmlns:dc="http://purl.org/dc/elements/1.1/"
   xmlns:cc="http://creativecommons.org/ns#"
   xmlns:rdf="http://www.w3.org/1999/02/22-rdf-syntax-ns#"
   xmlns:svg="http://www.w3.org/2000/svg"
   xmlns="http://www.w3.org/2000/svg"
   id="svg12"
   version="1.1"
   fill="none"
   viewBox="0 0 3990 1750"
   height="1750"
   width="3990">
  <metadata
     id="metadata18">
    <rdf:RDF>
      <cc:Work
         rdf:about="">
        <dc:format>image/svg+xml</dc:format>
        <dc:type
           rdf:resource="http://purl.org/dc/dcmitype/StillImage" />
        <dc:title></dc:title>
      </cc:Work>
    </rdf:RDF>
  </metadata>
  <defs
     id="defs16" />
  <path
     style="fill:#000000"
     id="path2"
     fill="white"
     d="M 955.95324,820.64341 1300.03,565.232 V 67.0801 L 793.64368,569.74241 Z" />
  <path
     style="fill:#000000"
     id="path4"
     fill="white"
     d="m 2688.1,564.531 418.7126,179.85191 162.45,-250.902 L 2688.1,66.3789 Z" />
  <path
     id="path6"
     fill="white"
     d="M1995.4 72.4354C1995.12 72.4354 1994.84 72.4354 1994.55 72.4354C1880.49 72.2948 1770.92 38.2596 1738.43 6.19336L1305.79 64.2782V568.618V1744.1H2683.17V568.759V64.4189L2250.68 6.334C2219.03 38.5409 2110.03 72.4354 1995.4 72.4354Z" />
  <path
     id="path8"
     fill="#B1B1B1"
     d="M 2687.39,58.9287 2248.71,0 C 2221,31.363 2108.34,66.5233 1995.54,66.5233 h -0.85 C 1882.45,66.3827 1769.09,30.9411 1741.24,0 l -439.11,58.9287 -514.25317,507.29371 -2.53159,1.547 168.358,260.324 L 1300.16,571.566 V 1750 H 2689.22 V 571.707 l 417.1726,179.14591 2.39,1.12 168.35,-260.323 z M 955.95324,820.64341 793.64351,569.73841 1300.31,67.0859 V 565.097 Z M 2683.45,1744.23 H 1306.07 V 568.753 64.4137 L 1738.71,6.32886 c 32.49,32.06624 141.92,65.96074 256.12,66.24204 h 0.85 c 114.63,0 223.63,-33.8945 255.28,-66.24204 L 2683.45,64.4137 V 568.753 Z M 3106.8126,744.38291 2689.36,565.097 V 67.0859 l 579.7626,426.39201 z" />
  <path
     style="fill:#000000"
     id="path10"
     fill="white"
     d="M1995.68 72.4354C1995.4 72.4354 1995.12 72.4354 1994.84 72.4354C1880.77 72.2948 1771.21 38.2596 1738.72 6.19336L1306.08 64.2782V568.618V1744.1H2683.46V568.759V64.4189L2250.96 6.334C2219.17 38.5409 2110.31 72.4354 1995.68 72.4354Z" />
</svg>
