<?xml version="1.0" encoding="UTF-8" standalone="no"?>
<svg
   xmlns:dc="http://purl.org/dc/elements/1.1/"
   xmlns:cc="http://creativecommons.org/ns#"
   xmlns:rdf="http://www.w3.org/1999/02/22-rdf-syntax-ns#"
   xmlns:svg="http://www.w3.org/2000/svg"
   xmlns="http://www.w3.org/2000/svg"
   xmlns:sodipodi="http://sodipodi.sourceforge.net/DTD/sodipodi-0.dtd"
   xmlns:inkscape="http://www.inkscape.org/namespaces/inkscape"
   inkscape:version="1.0 (6e3e5246a0, 2020-05-07)"
   sodipodi:docname="shirt_dark.svg"
   id="svg12"
   version="1.1"
   fill="none"
   viewBox="0 0 3990 1750"
   height="1750"
   width="3990">
  <metadata
     id="metadata18">
    <rdf:RDF>
      <cc:Work
         rdf:about="">
        <dc:format>image/svg+xml</dc:format>
        <dc:type
           rdf:resource="http://purl.org/dc/dcmitype/StillImage" />
        <dc:title></dc:title>
      </cc:Work>
    </rdf:RDF>
  </metadata>
  <defs
     id="defs16" />
  <sodipodi:namedview
     inkscape:current-layer="svg12"
     inkscape:window-maximized="0"
     inkscape:window-y="19"
     inkscape:window-x="1920"
     inkscape:cy="875"
     inkscape:cx="1995"
     inkscape:zoom="0.30451128"
     showgrid="false"
     id="namedview14"
     inkscape:window-height="1059"
     inkscape:window-width="1918"
     inkscape:pageshadow="2"
     inkscape:pageopacity="0"
     guidetolerance="10"
     gridtolerance="10"
     objecttolerance="10"
     borderopacity="1"
     bordercolor="#666666"
     pagecolor="#ffffff" />
  <path
     style="fill:#000000"
     id="path2"
     fill="white"
     d="M170.333 1126.95L1300.03 565.232V67.0801L8.02344 876.049L170.333 1126.95Z" />
  <path
     style="fill:#000000"
     id="path4"
     fill="white"
     d="M2688.1 564.531L3817.65 1126.25L3980.1 875.348L2688.1 66.3789V564.531Z" />
  <path
     id="path6"
     fill="white"
     d="M1995.4 72.4354C1995.12 72.4354 1994.84 72.4354 1994.55 72.4354C1880.49 72.2948 1770.92 38.2596 1738.43 6.19336L1305.79 64.2782V568.618V1744.1H2683.17V568.759V64.4189L2250.68 6.334C2219.03 38.5409 2110.03 72.4354 1995.4 72.4354Z" />
  <path
     id="path8"
     fill="#B1B1B1"
     d="M2687.39 58.9287L2248.71 0C2221 31.363 2108.34 66.5233 1995.54 66.5233C1995.26 66.5233 1994.97 66.5233 1994.69 66.5233C1882.45 66.3827 1769.09 30.9411 1741.24 0L1302.13 58.9287L2.53159 872.539L0 874.086L168.358 1134.41L1300.16 571.566V1750H2689.22V571.707L3818.64 1133.43L3821.03 1134.55L3989.38 874.227L2687.39 58.9287ZM170.608 1126.96L8.29827 876.055L1300.31 67.0859V565.097L170.608 1126.96ZM2683.45 1744.23H1306.07V568.753V64.4137L1738.71 6.32886C1771.2 38.3951 1880.63 72.2896 1994.83 72.5709C1995.11 72.5709 1995.4 72.5709 1995.68 72.5709C2110.31 72.5709 2219.31 38.6764 2250.96 6.32886L2683.45 64.4137V568.753V1744.23ZM3819.06 1126.96L2689.36 565.097V67.0859L3981.37 876.055L3819.06 1126.96Z" />
  <path
     style="fill:#000000"
     id="path10"
     fill="white"
     d="M1995.68 72.4354C1995.4 72.4354 1995.12 72.4354 1994.84 72.4354C1880.77 72.2948 1771.21 38.2596 1738.72 6.19336L1306.08 64.2782V568.618V1744.1H2683.46V568.759V64.4189L2250.96 6.334C2219.17 38.5409 2110.31 72.4354 1995.68 72.4354Z" />
</svg>
